<?xml version="1.0" encoding="UTF-8" standalone="no"?><!DOCTYPE svg PUBLIC "-//W3C//DTD SVG 1.1//EN" "http://www.w3.org/Graphics/SVG/1.1/DTD/svg11.dtd"><svg width="100%" height="100%" viewBox="0 0 775 756" version="1.1" xmlns="http://www.w3.org/2000/svg" xmlns:xlink="http://www.w3.org/1999/xlink" xml:space="preserve" xmlns:serif="http://www.serif.com/" style="fill-rule:evenodd;clip-rule:evenodd;stroke-linecap:round;stroke-linejoin:round;stroke-miterlimit:2;"><g><g><g><g><path d="M80.758,662.836c9.079,-21.183 34.233,-98.726 41.798,-132.013l-38.204,0c-3.404,22.696 -15.509,72.626 -23.074,95.321c-7.565,-22.695 -19.859,-72.625 -23.263,-95.321l-38.015,0c7.565,33.287 32.719,110.83 41.798,132.013l38.96,-0Z" style="fill:#2a4565;fill-rule:nonzero;"/><path d="M135.417,662.836l34.8,-0l-0,-96.457l-34.8,0l-0,96.457Zm-3.215,-125.204c-0,11.348 9.267,20.615 20.615,20.615c11.348,-0 20.615,-9.267 20.615,-20.615c0,-11.348 -9.267,-20.615 -20.615,-20.615c-11.348,-0 -20.615,9.267 -20.615,20.615Z" style="fill:#2a4565;fill-rule:nonzero;"/><path d="M253.623,563.732c-13.239,-0 -25.343,7.754 -28.558,13.995c-0,-1.135 -0.379,-7.754 -1.892,-11.348l-28.747,0l-0,96.457l34.799,-0l0,-48.796c0,-17.778 4.54,-22.695 13.239,-22.695c3.783,-0 6.62,1.134 8.322,5.295c1.324,3.215 2.081,8.322 2.081,16.265l-0,49.931l34.8,-0l-0,-55.226c-0,-10.97 -0.757,-19.859 -3.405,-26.857c-4.161,-10.969 -12.482,-17.021 -30.639,-17.021Z" style="fill:#2a4565;fill-rule:nonzero;"/><path d="M376.558,635.034c-7.566,2.269 -11.159,3.215 -20.237,3.215c-10.97,-0 -16.833,-6.62 -16.833,-23.641c0,-17.022 5.863,-23.642 16.833,-23.642c9.078,0 12.671,0.946 20.237,3.216l-0,-26.668c-6.053,-2.269 -13.05,-3.782 -25.155,-3.782c-31.017,-0 -47.093,19.858 -47.093,50.876c-0,31.017 16.076,50.876 47.093,50.876c12.105,-0 19.102,-1.514 25.155,-3.783l-0,-26.667Z" style="fill:#2a4565;fill-rule:nonzero;"/><path d="M428.001,665.484c13.239,-0 24.965,-7.755 28.18,-13.996c0,1.135 0.378,7.754 1.892,11.348l28.747,-0l0,-96.457l-34.8,0l0,48.796c0,17.778 -4.16,22.696 -12.86,22.696c-3.783,-0 -6.62,-1.135 -8.322,-5.296c-1.324,-3.215 -2.081,-8.322 -2.081,-16.265l0,-49.931l-34.799,0l-0,55.226c-0,10.97 0.756,19.859 3.404,26.857c4.161,10.969 12.482,17.022 30.639,17.022Z" style="fill:#2a4565;fill-rule:nonzero;"/><path d="M512.164,662.836l81.326,-0l-0,-29.694l-44.635,0l-0,-102.319l-36.691,0l-0,132.013Z" style="fill:#2a4565;fill-rule:nonzero;"/><path d="M689.189,600.612c0,-28.37 -17.4,-36.88 -40.852,-36.88c-18.535,-0 -31.017,2.837 -40.474,6.241l0,27.613c7.944,-3.404 22.696,-7.187 36.313,-7.187c6.431,-0 10.213,1.891 10.213,4.917c0,3.405 -1.702,5.485 -7.376,6.809l-13.806,3.026c-23.452,5.107 -32.531,15.32 -32.531,31.963c0,15.509 9.457,27.991 30.261,27.991c12.105,0 23.074,-6.052 27.613,-13.617c0,1.135 0.378,7.754 1.891,11.348l28.748,-0l0,-62.224Zm-34.8,26.478c0,9.646 -5.106,14.185 -11.158,14.185c-4.539,-0 -8.133,-3.215 -8.133,-7.754c0,-5.296 2.459,-8.322 8.889,-10.213l6.241,-1.892c1.514,-0.378 3.405,-0.945 4.161,-1.702l0,7.376Z" style="fill:#2a4565;fill-rule:nonzero;"/><path d="M712.641,662.836l34.8,-0l0,-53.713c0,-9.078 4.539,-14.563 13.618,-14.563c6.052,-0 10.402,0.378 13.428,1.135l-0,-30.639c-1.513,-0.379 -3.972,-0.946 -7.755,-0.946c-15.13,-0 -21.182,9.078 -23.452,14.374c0,-1.135 -0.378,-8.7 -1.891,-12.105l-28.748,0l0,96.457Z" style="fill:#2a4565;fill-rule:nonzero;"/></g></g><g><path d="M291.689,718.173l-0,23.808l-3.776,-0c-0.256,-1.28 -0.384,-2.603 -0.384,-3.968c-1.707,1.834 -3.424,3.05 -5.152,3.648c-1.728,0.597 -3.702,0.896 -5.92,0.896c-2.646,-0 -4.854,-0.822 -6.624,-2.464c-1.771,-1.643 -2.656,-3.744 -2.656,-6.304c-0,-5.419 3.157,-8.96 9.472,-10.624l5.696,-1.536c1.834,-0.512 3.136,-1.131 3.904,-1.856c0.768,-0.726 1.152,-1.643 1.152,-2.752c-0,-2.987 -2.219,-4.48 -6.656,-4.48c-3.286,-0 -6.912,0.746 -10.88,2.24l-0,-4.032c2.944,-1.408 6.421,-2.112 10.432,-2.112c3.882,-0 6.752,0.725 8.608,2.176c1.856,1.45 2.784,3.904 2.784,7.36Zm-4.288,12.16l-0,-6.976c-1.024,0.853 -2.411,1.536 -4.16,2.048l-5.376,1.536c-2.56,0.725 -4.246,1.642 -5.056,2.752c-0.811,1.109 -1.216,2.41 -1.216,3.904c-0,1.578 0.522,2.816 1.568,3.712c1.045,0.896 2.421,1.344 4.128,1.344c3.328,-0 5.845,-0.758 7.552,-2.272c1.706,-1.515 2.56,-3.531 2.56,-6.048Z" style="fill:#2a4565;fill-rule:nonzero;"/><path d="M303.785,731.229l-0,-18.24l-4.672,-0l-0,-3.648l4.672,-0l-0,-8.192c1.237,-0.598 2.666,-0.982 4.288,-1.152l-0,9.344l8.384,-0l-0,3.648l-8.384,-0l-0,18.24c-0,2.858 0.33,4.768 0.992,5.728c0.661,0.96 2.016,1.44 4.064,1.44c1.536,-0 2.986,-0.342 4.352,-1.024l-0,4.288c-1.408,0.469 -2.944,0.704 -4.608,0.704c-3.328,-0 -5.675,-0.811 -7.04,-2.432c-1.366,-1.622 -2.048,-4.523 -2.048,-8.704Z" style="fill:#2a4565;fill-rule:nonzero;"/><path d="M339.241,727.197l-7.104,1.792c-2.262,0.554 -3.392,1.792 -3.392,3.712c-0,1.28 0.736,2.613 2.208,4c1.472,1.386 3.53,2.08 6.176,2.08c3.84,-0 7.68,-0.96 11.52,-2.88l-0,4.096c-3.328,1.792 -7.168,2.688 -11.52,2.688c-4.566,-0 -8.064,-1.526 -10.496,-4.576c-2.432,-3.051 -3.648,-7.2 -3.648,-12.448c-0,-4.992 1.397,-9.078 4.192,-12.256c2.794,-3.179 6.304,-4.768 10.528,-4.768c3.797,-0 6.613,0.81 8.448,2.432c1.834,1.621 2.752,3.797 2.752,6.528c-0,2.602 -0.8,4.65 -2.4,6.144c-1.6,1.493 -4.022,2.645 -7.264,3.456Zm-11.84,-0.704l-0,0.64c0.938,-0.896 2.197,-1.536 3.776,-1.92l6.656,-1.792c2.218,-0.598 3.85,-1.323 4.896,-2.176c1.045,-0.854 1.568,-1.942 1.568,-3.264c-0,-3.627 -2.198,-5.44 -6.592,-5.44c-3.158,-0 -5.664,1.258 -7.52,3.776c-1.856,2.517 -2.784,5.909 -2.784,10.176Z" style="fill:#2a4565;fill-rule:nonzero;"/><path d="M373.225,708.637c1.664,-0 3.338,0.437 5.024,1.312c1.685,0.874 2.976,2.293 3.872,4.256c0.768,1.706 1.152,4.565 1.152,8.576l-0,19.2l-4.288,-0l-0,-16.96c-0,-3.798 -0.214,-6.4 -0.64,-7.808c-0.896,-2.859 -2.944,-4.288 -6.144,-4.288c-6.528,-0 -9.792,4.181 -9.792,12.544l-0,16.512l-4.288,-0l-0,-32.64l3.776,-0c0.256,1.28 0.384,3.093 0.384,5.44c2.048,-4.096 5.696,-6.144 10.944,-6.144Z" style="fill:#2a4565;fill-rule:nonzero;"/><path d="M413.417,737.309l-0,4.096c-2.262,0.853 -4.736,1.28 -7.424,1.28c-4.395,-0 -7.83,-1.515 -10.304,-4.544c-2.475,-3.03 -3.712,-7.19 -3.712,-12.48c-0,-5.291 1.237,-9.451 3.712,-12.48c2.474,-3.03 5.909,-4.544 10.304,-4.544c2.688,-0 5.162,0.426 7.424,1.28l-0,4.096c-2.56,-0.982 -5.035,-1.472 -7.424,-1.472c-3.286,-0 -5.707,1.162 -7.264,3.488c-1.558,2.325 -2.336,5.536 -2.336,9.632c-0,4.096 0.778,7.306 2.336,9.632c1.557,2.325 3.978,3.488 7.264,3.488c2.389,-0 4.864,-0.491 7.424,-1.472Zm-8.832,10.368l-0,-2.688c2.432,-0 4.277,0.416 5.536,1.248c1.258,0.832 1.888,1.973 1.888,3.424c-0,1.792 -0.64,3.2 -1.92,4.224c-1.28,1.024 -3.008,1.536 -5.184,1.536c-1.75,-0 -3.051,-0.214 -3.904,-0.64l-0,-3.584c1.152,0.768 2.496,1.152 4.032,1.152c2.005,-0 3.008,-0.747 3.008,-2.24c-0,-1.622 -1.152,-2.432 -3.456,-2.432Z" style="fill:#2a4565;fill-rule:nonzero;"/><path d="M444.457,718.173l-0,23.808l-3.776,-0c-0.256,-1.28 -0.384,-2.603 -0.384,-3.968c-1.707,1.834 -3.424,3.05 -5.152,3.648c-1.728,0.597 -3.702,0.896 -5.92,0.896c-2.646,-0 -4.854,-0.822 -6.624,-2.464c-1.771,-1.643 -2.656,-3.744 -2.656,-6.304c-0,-5.419 3.157,-8.96 9.472,-10.624l5.696,-1.536c1.834,-0.512 3.136,-1.131 3.904,-1.856c0.768,-0.726 1.152,-1.643 1.152,-2.752c-0,-2.987 -2.219,-4.48 -6.656,-4.48c-3.286,-0 -6.912,0.746 -10.88,2.24l-0,-4.032c2.944,-1.408 6.421,-2.112 10.432,-2.112c3.882,-0 6.752,0.725 8.608,2.176c1.856,1.45 2.784,3.904 2.784,7.36Zm-4.288,12.16l-0,-6.976c-1.024,0.853 -2.411,1.536 -4.16,2.048l-5.376,1.536c-2.56,0.725 -4.246,1.642 -5.056,2.752c-0.811,1.109 -1.216,2.41 -1.216,3.904c-0,1.578 0.522,2.816 1.568,3.712c1.045,0.896 2.421,1.344 4.128,1.344c3.328,-0 5.845,-0.758 7.552,-2.272c1.706,-1.515 2.56,-3.531 2.56,-6.048Zm-2.688,-26.24c-1.366,-0 -3.051,-0.651 -5.056,-1.952c-2.006,-1.302 -3.435,-1.952 -4.288,-1.952c-0.982,-0 -1.771,0.362 -2.368,1.088c-0.598,0.725 -0.896,1.621 -0.896,2.688l-3.008,-0c-0,-4.907 2.218,-7.36 6.656,-7.36c1.365,-0 3.05,0.65 5.056,1.952c2.005,1.301 3.434,1.952 4.288,1.952c0.981,-0 1.77,-0.363 2.368,-1.088c0.597,-0.726 0.896,-1.622 0.896,-2.688l3.008,-0c-0,4.906 -2.219,7.36 -6.656,7.36Z" style="fill:#2a4565;fill-rule:nonzero;"/><path d="M474.409,735.325c1.578,-2.347 2.368,-5.568 2.368,-9.664c-0,-4.096 -0.779,-7.307 -2.336,-9.632c-1.558,-2.326 -3.979,-3.488 -7.264,-3.488c-3.286,-0 -5.707,1.162 -7.264,3.488c-1.558,2.325 -2.336,5.536 -2.336,9.632c-0,4.096 0.778,7.306 2.336,9.632c1.557,2.325 3.978,3.488 7.264,3.488c3.285,-0 5.696,-1.152 7.232,-3.456Zm3.072,-22.08c2.474,3.072 3.712,7.21 3.712,12.416c-0,5.205 -1.227,9.344 -3.68,12.416c-2.454,3.072 -5.899,4.608 -10.336,4.608c-4.438,-0 -7.883,-1.536 -10.336,-4.608c-2.454,-3.072 -3.68,-7.211 -3.68,-12.416c-0,-5.206 1.226,-9.344 3.68,-12.416c2.453,-3.072 5.898,-4.608 10.336,-4.608c4.437,-0 7.872,1.536 10.304,4.608Z" style="fill:#2a4565;fill-rule:nonzero;"/><path d="M531.049,695.645l-0,46.336l-3.776,-0c-0.256,-1.28 -0.384,-2.731 -0.384,-4.352c-1.067,1.706 -2.326,2.976 -3.776,3.808c-1.451,0.832 -3.307,1.248 -5.568,1.248c-4.352,-0 -7.616,-1.504 -9.792,-4.512c-2.176,-3.008 -3.264,-7.179 -3.264,-12.512c-0,-5.334 1.066,-9.504 3.2,-12.512c2.133,-3.008 5.418,-4.512 9.856,-4.512c4.437,-0 7.509,1.834 9.216,5.504l-0,-18.496l4.288,-0Zm-4.288,30.016c-0,-4.139 -0.683,-7.318 -2.048,-9.536c-1.366,-2.219 -3.67,-3.328 -6.912,-3.328c-3.243,-0 -5.536,1.109 -6.88,3.328c-1.344,2.218 -2.016,5.397 -2.016,9.536c-0,4.181 0.672,7.413 2.016,9.696c1.344,2.282 3.637,3.424 6.88,3.424c5.973,-0 8.96,-4.374 8.96,-13.12Z" style="fill:#2a4565;fill-rule:nonzero;"/><path d="M561.257,735.325c1.578,-2.347 2.368,-5.568 2.368,-9.664c-0,-4.096 -0.779,-7.307 -2.336,-9.632c-1.558,-2.326 -3.979,-3.488 -7.264,-3.488c-3.286,-0 -5.707,1.162 -7.264,3.488c-1.558,2.325 -2.336,5.536 -2.336,9.632c-0,4.096 0.778,7.306 2.336,9.632c1.557,2.325 3.978,3.488 7.264,3.488c3.285,-0 5.696,-1.152 7.232,-3.456Zm3.072,-22.08c2.474,3.072 3.712,7.21 3.712,12.416c-0,5.205 -1.227,9.344 -3.68,12.416c-2.454,3.072 -5.899,4.608 -10.336,4.608c-4.438,-0 -7.883,-1.536 -10.336,-4.608c-2.454,-3.072 -3.68,-7.211 -3.68,-12.416c-0,-5.206 1.226,-9.344 3.68,-12.416c2.453,-3.072 5.898,-4.608 10.336,-4.608c4.437,-0 7.872,1.536 10.304,4.608Z" style="fill:#2a4565;fill-rule:nonzero;"/><path d="M591.721,708.637c4.821,-0 7.978,2.218 9.472,6.656c2.133,-4.438 5.93,-6.656 11.392,-6.656c1.664,-0 3.328,0.437 4.992,1.312c1.664,0.874 2.965,2.314 3.904,4.32c0.768,1.664 1.152,4.501 1.152,8.512l-0,19.2l-4.288,-0l-0,-16.96c-0,-4.139 -0.15,-6.742 -0.448,-7.808c-0.854,-2.859 -2.923,-4.288 -6.208,-4.288c-6.486,-0 -9.728,4.181 -9.728,12.544l-0,16.512l-4.288,-0l-0,-16.96c-0,-4.139 -0.15,-6.742 -0.448,-7.808c-0.854,-2.859 -2.923,-4.288 -6.208,-4.288c-6.486,-0 -9.728,4.181 -9.728,12.544l-0,16.512l-4.288,-0l-0,-32.64l3.776,-0c0.256,1.28 0.384,3.093 0.384,5.44c2.133,-4.096 5.653,-6.144 10.56,-6.144Z" style="fill:#2a4565;fill-rule:nonzero;"/><path d="M633.385,741.981l-0,-32.64l4.288,-0l-0,32.64l-4.288,-0Zm-0.384,-39.872c-0.683,-0.726 -1.024,-1.558 -1.024,-2.496c-0,-0.939 0.341,-1.76 1.024,-2.464c0.682,-0.704 1.514,-1.056 2.496,-1.056c0.981,-0 1.813,0.352 2.496,1.056c0.682,0.704 1.024,1.525 1.024,2.464c-0,0.938 -0.342,1.76 -1.024,2.464c-0.683,0.704 -1.515,1.056 -2.496,1.056c-0.982,-0 -1.814,-0.342 -2.496,-1.024Z" style="fill:#2a4565;fill-rule:nonzero;"/><path d="M668.073,737.309l-0,4.096c-2.262,0.853 -4.736,1.28 -7.424,1.28c-4.395,-0 -7.83,-1.515 -10.304,-4.544c-2.475,-3.03 -3.712,-7.19 -3.712,-12.48c-0,-5.291 1.237,-9.451 3.712,-12.48c2.474,-3.03 5.909,-4.544 10.304,-4.544c2.688,-0 5.162,0.426 7.424,1.28l-0,4.096c-2.56,-0.982 -5.035,-1.472 -7.424,-1.472c-3.286,-0 -5.707,1.162 -7.264,3.488c-1.558,2.325 -2.336,5.536 -2.336,9.632c-0,4.096 0.778,7.306 2.336,9.632c1.557,2.325 3.978,3.488 7.264,3.488c2.389,-0 4.864,-0.491 7.424,-1.472Z" style="fill:#2a4565;fill-rule:nonzero;"/><path d="M676.521,741.981l-0,-32.64l4.288,-0l-0,32.64l-4.288,-0Zm-0.384,-39.872c-0.683,-0.726 -1.024,-1.558 -1.024,-2.496c-0,-0.939 0.341,-1.76 1.024,-2.464c0.682,-0.704 1.514,-1.056 2.496,-1.056c0.981,-0 1.813,0.352 2.496,1.056c0.682,0.704 1.024,1.525 1.024,2.464c-0,0.938 -0.342,1.76 -1.024,2.464c-0.683,0.704 -1.515,1.056 -2.496,1.056c-0.982,-0 -1.814,-0.342 -2.496,-1.024Z" style="fill:#2a4565;fill-rule:nonzero;"/><path d="M691.561,732.125l-0,-36.48l4.288,-0l-0,36.48c-0,2.261 0.224,3.797 0.672,4.608c0.448,0.81 1.418,1.216 2.912,1.216l1.152,-0l-0,4.032c-0.64,0.128 -1.366,0.192 -2.176,0.192c-2.56,-0 -4.342,-0.747 -5.344,-2.24c-1.003,-1.494 -1.504,-4.096 -1.504,-7.808Z" style="fill:#2a4565;fill-rule:nonzero;"/><path d="M708.393,741.981l-0,-32.64l4.288,-0l-0,32.64l-4.288,-0Zm-0.384,-39.872c-0.683,-0.726 -1.024,-1.558 -1.024,-2.496c-0,-0.939 0.341,-1.76 1.024,-2.464c0.682,-0.704 1.514,-1.056 2.496,-1.056c0.981,-0 1.813,0.352 2.496,1.056c0.682,0.704 1.024,1.525 1.024,2.464c-0,0.938 -0.342,1.76 -1.024,2.464c-0.683,0.704 -1.515,1.056 -2.496,1.056c-0.982,-0 -1.814,-0.342 -2.496,-1.024Z" style="fill:#2a4565;fill-rule:nonzero;"/><path d="M746.281,718.173l-0,23.808l-3.776,-0c-0.256,-1.28 -0.384,-2.603 -0.384,-3.968c-1.707,1.834 -3.424,3.05 -5.152,3.648c-1.728,0.597 -3.702,0.896 -5.92,0.896c-2.646,-0 -4.854,-0.822 -6.624,-2.464c-1.771,-1.643 -2.656,-3.744 -2.656,-6.304c-0,-5.419 3.157,-8.96 9.472,-10.624l5.696,-1.536c1.834,-0.512 3.136,-1.131 3.904,-1.856c0.768,-0.726 1.152,-1.643 1.152,-2.752c-0,-2.987 -2.219,-4.48 -6.656,-4.48c-3.286,-0 -6.912,0.746 -10.88,2.24l-0,-4.032c2.944,-1.408 6.421,-2.112 10.432,-2.112c3.882,-0 6.752,0.725 8.608,2.176c1.856,1.45 2.784,3.904 2.784,7.36Zm-4.288,12.16l-0,-6.976c-1.024,0.853 -2.411,1.536 -4.16,2.048l-5.376,1.536c-2.56,0.725 -4.246,1.642 -5.056,2.752c-0.811,1.109 -1.216,2.41 -1.216,3.904c-0,1.578 0.522,2.816 1.568,3.712c1.045,0.896 2.421,1.344 4.128,1.344c3.328,-0 5.845,-0.758 7.552,-2.272c1.706,-1.515 2.56,-3.531 2.56,-6.048Z" style="fill:#2a4565;fill-rule:nonzero;"/><path d="M757.033,741.981l-0,-32.64l3.776,-0c0.213,1.066 0.32,2.496 0.32,4.288c2.133,-3.286 4.928,-4.928 8.384,-4.928c1.194,-0 2.133,0.085 2.816,0.256l-0,4.672c-1.152,-0.384 -2.24,-0.576 -3.264,-0.576c-2.688,-0 -4.651,0.746 -5.888,2.24c-1.238,1.493 -1.856,3.818 -1.856,6.976l-0,19.712l-4.288,-0Z" style="fill:#2a4565;fill-rule:nonzero;"/></g></g><g><path d="M378.762,412.797l16.961,0.002l122.343,41.706c37.598,12.816 76.651,-15.133 76.651,-54.855l0,-195.811c0,-16.944 -7.413,-33.038 -20.291,-44.049l-149.521,-127.841c-21.684,-18.54 -53.638,-18.54 -75.322,0l-149.521,127.841c-12.878,11.011 -20.292,27.105 -20.292,44.049l-0,195.81c-0,39.722 39.055,67.672 76.652,54.856l122.34,-41.708Z" style="fill:none;stroke:#1b7976;stroke-width:36.09px;"/><g><g><path d="M301.753,185.644c-18.207,7.997 -31.956,25.472 -36.115,45.406c-4.359,20.89 2.071,43.892 16.507,59.103l62.091,65.002c5.718,5.399 11.309,10.936 16.922,16.45c4.16,4.082 8.436,8.478 13.293,11.647c-5.972,-4.086 -11.209,-10.259 -16.342,-15.698c-8.328,-8.806 -17.895,-16.887 -23.533,-27.782c-7.116,-13.754 -8.531,-30.246 -4.877,-45.49l-25.714,-26.92c-7.111,-7.491 -10.396,-18.995 -8.222,-29.422c2.949,-14.131 15.833,-24.876 29.551,-25.005c0.122,-0.001 0.246,-0.001 0.368,0c7.94,0.074 15.613,3.434 21.205,9.179l19.457,20.306l10.044,-10.531l11.747,-12.279l-19.581,-20.466c-11.34,-11.649 -26.923,-18.345 -42.69,-18.494l-0.172,0c-8.103,0 -16.38,1.674 -23.939,4.994Z" style="fill:#1b7976;fill-rule:nonzero;"/><path d="M398.3,254.554l-10.165,10.674l20.827,21.87c11.46,12.23 11.615,33.093 0.538,44.256c-7.028,6.984 -13.741,14.197 -20.592,21.253l-0.773,0.782l0.146,0.147c7.663,-6.928 14.799,-14.495 22.326,-21.618l0.191,-0.179c11.948,-12.511 23.92,-24.998 35.876,-37.516c-2.683,-11.237 -8.147,-21.774 -16.032,-30.081l-20.715,-21.722l-11.627,12.134Z" style="fill:#1b7976;fill-rule:nonzero;"/><path d="M450.041,180.654c-15.893,0.248 -31.393,7.121 -42.584,18.761l-19.322,20.195l11.489,12.007l10.303,10.803l19.459,-20.306c5.613,-5.764 13.328,-9.107 21.206,-9.179c0.183,-0.001 0.368,0 0.552,0.002c11.07,0.172 21.527,6.929 26.597,17.035c5.984,11.93 3.64,27.69 -5.294,37.224l-25.773,27.027c3.366,13.9 2.483,28.866 -3.272,41.977c-5.148,11.736 -14.812,20.407 -23.404,29.425c-6.574,6.895 -13.161,14.786 -20.751,19.034c3.087,-1.633 5.961,-3.817 8.598,-6.162c8.394,-7.455 16.054,-15.656 24.195,-23.342l62.09,-65.002c19.591,-20.643 22.99,-52.889 10.006,-76.929c-10.556,-19.545 -31.506,-32.372 -52.992,-32.574c-0.369,0 -0.735,0 -1.103,0.004Z" style="fill:#1b7976;fill-rule:nonzero;"/><path d="M345.371,264.416c-7.744,8.26 -13.066,18.729 -15.672,29.866l35.778,37.457c7.62,7.195 14.955,14.96 22.518,21.797l0.14,-0.147l-0.011,-0.012c-7.172,-7.25 -13.962,-14.777 -21.211,-21.886c-12.204,-12.131 -10.511,-32.752 0.401,-44.393l20.821,-21.87l-10.161,-10.671l-11.63,-12.137l-20.973,21.996Z" style="fill:#1b7976;fill-rule:nonzero;"/><path d="M410.798,331.739l-0.191,0.179c-7.527,7.123 -14.663,14.69 -22.326,21.618l-0.146,-0.147l-0.14,0.147c-7.563,-6.837 -14.898,-14.602 -22.518,-21.797l-35.778,-37.457c-3.654,15.244 -2.239,31.736 4.877,45.49c5.638,10.895 15.205,18.976 23.533,27.782c5.133,5.439 10.37,11.612 16.342,15.698c2.518,1.693 5.209,3.034 8.114,3.826c1.653,0.452 3.253,0.694 4.829,0.713l1.337,0.014l0.952,-0.067l2.496,-0.355l2.825,-0.792l2.639,-1.091l0.225,-0.101l1.379,-0.74c7.59,-4.248 14.177,-12.139 20.751,-19.034c8.592,-9.018 18.256,-17.689 23.404,-29.425c5.755,-13.111 6.638,-28.077 3.272,-41.977c-11.956,12.518 -23.928,25.005 -35.876,37.516Z" style="fill:url(#_Linear1);fill-rule:nonzero;"/><path d="M376.388,231.889l-10.044,10.531l11.63,12.137l10.161,10.671l10.165,-10.674l11.627,-12.134l-10.303,-10.803l-11.489,-12.007l-11.747,12.279Z" style="fill:url(#_Linear2);fill-rule:nonzero;"/><g><g><path d="M446.674,294.223c3.365,13.9 2.483,28.866 -3.272,41.977c-5.148,11.736 -14.812,20.407 -23.405,29.423c-6.573,6.897 -13.16,14.788 -20.75,19.036l-1.38,0.74l-0.224,0.102l-2.639,1.09l-2.825,0.792l-2.496,0.355l-0.952,0.067l-1.336,-0.014c-1.577,-0.019 -3.177,-0.261 -4.83,-0.713c-2.905,-0.792 -5.594,-2.133 -8.113,-3.828c-5.973,-4.084 -11.21,-10.257 -16.345,-15.697c-8.326,-8.805 -17.893,-16.886 -23.531,-27.781c-7.116,-13.754 -8.531,-30.245 -4.878,-45.492l35.779,37.46c7.62,7.193 14.955,14.959 22.516,21.796l0.143,-0.147l0.146,0.147c7.662,-6.93 14.798,-14.496 22.325,-21.618l0.191,-0.178c11.95,-12.512 23.921,-24.999 35.876,-37.517Z" style="fill:#1b7976;"/></g></g><g><g><path d="M399.623,231.617l10.304,10.803l-11.627,12.134l-10.164,10.674l-10.162,-10.673l-11.63,-12.135l10.044,-10.531l11.748,-12.277l11.487,12.005Z" style="fill:#1b7976;"/></g></g></g></g></g></g><defs><linearGradient id="_Linear1" x1="0" y1="0" x2="1" y2="0" gradientUnits="userSpaceOnUse" gradientTransform="matrix(0,93.5804,-89.388,0,388.194,294.224)"><stop offset="0" style="stop-color:#d8235c;stop-opacity:1"/><stop offset="1" style="stop-color:#971195;stop-opacity:1"/></linearGradient><linearGradient id="_Linear2" x1="0" y1="0" x2="1" y2="0" gradientUnits="userSpaceOnUse" gradientTransform="matrix(0,45.6167,-43.5731,0,388.136,219.611)"><stop offset="0" style="stop-color:#d8235c;stop-opacity:1"/><stop offset="1" style="stop-color:#971195;stop-opacity:1"/></linearGradient></defs></svg>